<?xml version="1.0" encoding="utf-8"?>
<svg xmlns="http://www.w3.org/2000/svg" xmlns:xlink="http://www.w3.org/1999/xlink" xml:space="preserve" width="1075.25" height="1343.0625" viewBox="0 0 1075.25 1343.0625"><g transform="scale(44.802083333333)" fill="#a3a0ff"><path d="M24,24h-6v-1h5v-5h1V24z M6,23H1v-5H0v6h6V23z M1,1h5V0H0v6h1V1z M24,0h-6v1h5v5h1V0z"/></g><g fill="#a3a0ff">
<g transform="translate(342.125,158.125) scale(3.9483333333333)"><circle cx="3" cy="3" r="3"/></g>
<g transform="translate(388.125,158.125) scale(3.9483333333333)"><circle cx="3" cy="3" r="3"/></g>
<g transform="translate(434.125,158.125) scale(3.9483333333333)"><circle cx="3" cy="3" r="3"/></g>
<g transform="translate(480.125,158.125) scale(3.9483333333333)"><circle cx="3" cy="3" r="3"/></g>
<g transform="translate(549.125,158.125) scale(3.9483333333333)"><circle cx="3" cy="3" r="3"/></g>
<g transform="translate(572.125,158.125) scale(3.9483333333333)"><circle cx="3" cy="3" r="3"/></g>
<g transform="translate(595.125,158.125) scale(3.9483333333333)"><circle cx="3" cy="3" r="3"/></g>
<g transform="translate(687.125,158.125) scale(3.9483333333333)"><circle cx="3" cy="3" r="3"/></g>
<g transform="translate(710.125,158.125) scale(3.9483333333333)"><circle cx="3" cy="3" r="3"/></g>
<g transform="translate(342.125,181.125) scale(3.9483333333333)"><circle cx="3" cy="3" r="3"/></g>
<g transform="translate(365.125,181.125) scale(3.9483333333333)"><circle cx="3" cy="3" r="3"/></g>
<g transform="translate(503.125,181.125) scale(3.9483333333333)"><circle cx="3" cy="3" r="3"/></g>
<g transform="translate(595.125,181.125) scale(3.9483333333333)"><circle cx="3" cy="3" r="3"/></g>
<g transform="translate(618.125,181.125) scale(3.9483333333333)"><circle cx="3" cy="3" r="3"/></g>
<g transform="translate(641.125,181.125) scale(3.9483333333333)"><circle cx="3" cy="3" r="3"/></g>
<g transform="translate(710.125,181.125) scale(3.9483333333333)"><circle cx="3" cy="3" r="3"/></g>
<g transform="translate(342.125,204.125) scale(3.9483333333333)"><circle cx="3" cy="3" r="3"/></g>
<g transform="translate(411.125,204.125) scale(3.9483333333333)"><circle cx="3" cy="3" r="3"/></g>
<g transform="translate(434.125,204.125) scale(3.9483333333333)"><circle cx="3" cy="3" r="3"/></g>
<g transform="translate(480.125,204.125) scale(3.9483333333333)"><circle cx="3" cy="3" r="3"/></g>
<g transform="translate(572.125,204.125) scale(3.9483333333333)"><circle cx="3" cy="3" r="3"/></g>
<g transform="translate(618.125,204.125) scale(3.9483333333333)"><circle cx="3" cy="3" r="3"/></g>
<g transform="translate(641.125,204.125) scale(3.9483333333333)"><circle cx="3" cy="3" r="3"/></g>
<g transform="translate(664.125,204.125) scale(3.9483333333333)"><circle cx="3" cy="3" r="3"/></g>
<g transform="translate(687.125,204.125) scale(3.9483333333333)"><circle cx="3" cy="3" r="3"/></g>
<g transform="translate(710.125,204.125) scale(3.9483333333333)"><circle cx="3" cy="3" r="3"/></g>
<g transform="translate(411.125,227.125) scale(3.9483333333333)"><circle cx="3" cy="3" r="3"/></g>
<g transform="translate(480.125,227.125) scale(3.9483333333333)"><circle cx="3" cy="3" r="3"/></g>
<g transform="translate(503.125,227.125) scale(3.9483333333333)"><circle cx="3" cy="3" r="3"/></g>
<g transform="translate(526.125,227.125) scale(3.9483333333333)"><circle cx="3" cy="3" r="3"/></g>
<g transform="translate(618.125,227.125) scale(3.9483333333333)"><circle cx="3" cy="3" r="3"/></g>
<g transform="translate(687.125,227.125) scale(3.9483333333333)"><circle cx="3" cy="3" r="3"/></g>
<g transform="translate(388.125,250.125) scale(3.9483333333333)"><circle cx="3" cy="3" r="3"/></g>
<g transform="translate(503.125,250.125) scale(3.9483333333333)"><circle cx="3" cy="3" r="3"/></g>
<g transform="translate(572.125,250.125) scale(3.9483333333333)"><circle cx="3" cy="3" r="3"/></g>
<g transform="translate(641.125,250.125) scale(3.9483333333333)"><circle cx="3" cy="3" r="3"/></g>
<g transform="translate(710.125,250.125) scale(3.9483333333333)"><circle cx="3" cy="3" r="3"/></g>
<g transform="translate(342.125,273.125) scale(3.9483333333333)"><circle cx="3" cy="3" r="3"/></g>
<g transform="translate(411.125,273.125) scale(3.9483333333333)"><circle cx="3" cy="3" r="3"/></g>
<g transform="translate(480.125,273.125) scale(3.9483333333333)"><circle cx="3" cy="3" r="3"/></g>
<g transform="translate(503.125,273.125) scale(3.9483333333333)"><circle cx="3" cy="3" r="3"/></g>
<g transform="translate(618.125,273.125) scale(3.9483333333333)"><circle cx="3" cy="3" r="3"/></g>
<g transform="translate(664.125,273.125) scale(3.9483333333333)"><circle cx="3" cy="3" r="3"/></g>
<g transform="translate(342.125,296.125) scale(3.9483333333333)"><circle cx="3" cy="3" r="3"/></g>
<g transform="translate(388.125,296.125) scale(3.9483333333333)"><circle cx="3" cy="3" r="3"/></g>
<g transform="translate(434.125,296.125) scale(3.9483333333333)"><circle cx="3" cy="3" r="3"/></g>
<g transform="translate(480.125,296.125) scale(3.9483333333333)"><circle cx="3" cy="3" r="3"/></g>
<g transform="translate(526.125,296.125) scale(3.9483333333333)"><circle cx="3" cy="3" r="3"/></g>
<g transform="translate(572.125,296.125) scale(3.9483333333333)"><circle cx="3" cy="3" r="3"/></g>
<g transform="translate(618.125,296.125) scale(3.9483333333333)"><circle cx="3" cy="3" r="3"/></g>
<g transform="translate(664.125,296.125) scale(3.9483333333333)"><circle cx="3" cy="3" r="3"/></g>
<g transform="translate(710.125,296.125) scale(3.9483333333333)"><circle cx="3" cy="3" r="3"/></g>
<g transform="translate(342.125,319.125) scale(3.9483333333333)"><circle cx="3" cy="3" r="3"/></g>
<g transform="translate(434.125,319.125) scale(3.9483333333333)"><circle cx="3" cy="3" r="3"/></g>
<g transform="translate(457.125,319.125) scale(3.9483333333333)"><circle cx="3" cy="3" r="3"/></g>
<g transform="translate(503.125,319.125) scale(3.9483333333333)"><circle cx="3" cy="3" r="3"/></g>
<g transform="translate(526.125,319.125) scale(3.9483333333333)"><circle cx="3" cy="3" r="3"/></g>
<g transform="translate(618.125,319.125) scale(3.9483333333333)"><circle cx="3" cy="3" r="3"/></g>
<g transform="translate(664.125,319.125) scale(3.9483333333333)"><circle cx="3" cy="3" r="3"/></g>
<g transform="translate(710.125,319.125) scale(3.9483333333333)"><circle cx="3" cy="3" r="3"/></g>
<g transform="translate(204.125,342.125) scale(3.9483333333333)"><circle cx="3" cy="3" r="3"/></g>
<g transform="translate(227.125,342.125) scale(3.9483333333333)"><circle cx="3" cy="3" r="3"/></g>
<g transform="translate(250.125,342.125) scale(3.9483333333333)"><circle cx="3" cy="3" r="3"/></g>
<g transform="translate(296.125,342.125) scale(3.9483333333333)"><circle cx="3" cy="3" r="3"/></g>
<g transform="translate(342.125,342.125) scale(3.9483333333333)"><circle cx="3" cy="3" r="3"/></g>
<g transform="translate(388.125,342.125) scale(3.9483333333333)"><circle cx="3" cy="3" r="3"/></g>
<g transform="translate(411.125,342.125) scale(3.9483333333333)"><circle cx="3" cy="3" r="3"/></g>
<g transform="translate(434.125,342.125) scale(3.9483333333333)"><circle cx="3" cy="3" r="3"/></g>
<g transform="translate(480.125,342.125) scale(3.9483333333333)"><circle cx="3" cy="3" r="3"/></g>
<g transform="translate(572.125,342.125) scale(3.9483333333333)"><circle cx="3" cy="3" r="3"/></g>
<g transform="translate(618.125,342.125) scale(3.9483333333333)"><circle cx="3" cy="3" r="3"/></g>
<g transform="translate(641.125,342.125) scale(3.9483333333333)"><circle cx="3" cy="3" r="3"/></g>
<g transform="translate(710.125,342.125) scale(3.9483333333333)"><circle cx="3" cy="3" r="3"/></g>
<g transform="translate(733.125,342.125) scale(3.9483333333333)"><circle cx="3" cy="3" r="3"/></g>
<g transform="translate(756.125,342.125) scale(3.9483333333333)"><circle cx="3" cy="3" r="3"/></g>
<g transform="translate(779.125,342.125) scale(3.9483333333333)"><circle cx="3" cy="3" r="3"/></g>
<g transform="translate(848.125,342.125) scale(3.9483333333333)"><circle cx="3" cy="3" r="3"/></g>
<g transform="translate(871.125,342.125) scale(3.9483333333333)"><circle cx="3" cy="3" r="3"/></g>
<g transform="translate(894.125,342.125) scale(3.9483333333333)"><circle cx="3" cy="3" r="3"/></g>
<g transform="translate(204.125,365.125) scale(3.9483333333333)"><circle cx="3" cy="3" r="3"/></g>
<g transform="translate(227.125,365.125) scale(3.9483333333333)"><circle cx="3" cy="3" r="3"/></g>
<g transform="translate(342.125,365.125) scale(3.9483333333333)"><circle cx="3" cy="3" r="3"/></g>
<g transform="translate(365.125,365.125) scale(3.9483333333333)"><circle cx="3" cy="3" r="3"/></g>
<g transform="translate(388.125,365.125) scale(3.9483333333333)"><circle cx="3" cy="3" r="3"/></g>
<g transform="translate(457.125,365.125) scale(3.9483333333333)"><circle cx="3" cy="3" r="3"/></g>
<g transform="translate(503.125,365.125) scale(3.9483333333333)"><circle cx="3" cy="3" r="3"/></g>
<g transform="translate(549.125,365.125) scale(3.9483333333333)"><circle cx="3" cy="3" r="3"/></g>
<g transform="translate(595.125,365.125) scale(3.9483333333333)"><circle cx="3" cy="3" r="3"/></g>
<g transform="translate(618.125,365.125) scale(3.9483333333333)"><circle cx="3" cy="3" r="3"/></g>
<g transform="translate(664.125,365.125) scale(3.9483333333333)"><circle cx="3" cy="3" r="3"/></g>
<g transform="translate(733.125,365.125) scale(3.9483333333333)"><circle cx="3" cy="3" r="3"/></g>
<g transform="translate(756.125,365.125) scale(3.9483333333333)"><circle cx="3" cy="3" r="3"/></g>
<g transform="translate(825.125,365.125) scale(3.9483333333333)"><circle cx="3" cy="3" r="3"/></g>
<g transform="translate(894.125,365.125) scale(3.9483333333333)"><circle cx="3" cy="3" r="3"/></g>
<g transform="translate(181.125,388.125) scale(3.9483333333333)"><circle cx="3" cy="3" r="3"/></g>
<g transform="translate(204.125,388.125) scale(3.9483333333333)"><circle cx="3" cy="3" r="3"/></g>
<g transform="translate(227.125,388.125) scale(3.9483333333333)"><circle cx="3" cy="3" r="3"/></g>
<g transform="translate(273.125,388.125) scale(3.9483333333333)"><circle cx="3" cy="3" r="3"/></g>
<g transform="translate(296.125,388.125) scale(3.9483333333333)"><circle cx="3" cy="3" r="3"/></g>
<g transform="translate(434.125,388.125) scale(3.9483333333333)"><circle cx="3" cy="3" r="3"/></g>
<g transform="translate(503.125,388.125) scale(3.9483333333333)"><circle cx="3" cy="3" r="3"/></g>
<g transform="translate(526.125,388.125) scale(3.9483333333333)"><circle cx="3" cy="3" r="3"/></g>
<g transform="translate(572.125,388.125) scale(3.9483333333333)"><circle cx="3" cy="3" r="3"/></g>
<g transform="translate(664.125,388.125) scale(3.9483333333333)"><circle cx="3" cy="3" r="3"/></g>
<g transform="translate(710.125,388.125) scale(3.9483333333333)"><circle cx="3" cy="3" r="3"/></g>
<g transform="translate(779.125,388.125) scale(3.9483333333333)"><circle cx="3" cy="3" r="3"/></g>
<g transform="translate(825.125,388.125) scale(3.9483333333333)"><circle cx="3" cy="3" r="3"/></g>
<g transform="translate(181.125,411.125) scale(3.9483333333333)"><circle cx="3" cy="3" r="3"/></g>
<g transform="translate(204.125,411.125) scale(3.9483333333333)"><circle cx="3" cy="3" r="3"/></g>
<g transform="translate(227.125,411.125) scale(3.9483333333333)"><circle cx="3" cy="3" r="3"/></g>
<g transform="translate(250.125,411.125) scale(3.9483333333333)"><circle cx="3" cy="3" r="3"/></g>
<g transform="translate(388.125,411.125) scale(3.9483333333333)"><circle cx="3" cy="3" r="3"/></g>
<g transform="translate(457.125,411.125) scale(3.9483333333333)"><circle cx="3" cy="3" r="3"/></g>
<g transform="translate(480.125,411.125) scale(3.9483333333333)"><circle cx="3" cy="3" r="3"/></g>
<g transform="translate(503.125,411.125) scale(3.9483333333333)"><circle cx="3" cy="3" r="3"/></g>
<g transform="translate(526.125,411.125) scale(3.9483333333333)"><circle cx="3" cy="3" r="3"/></g>
<g transform="translate(572.125,411.125) scale(3.9483333333333)"><circle cx="3" cy="3" r="3"/></g>
<g transform="translate(710.125,411.125) scale(3.9483333333333)"><circle cx="3" cy="3" r="3"/></g>
<g transform="translate(733.125,411.125) scale(3.9483333333333)"><circle cx="3" cy="3" r="3"/></g>
<g transform="translate(756.125,411.125) scale(3.9483333333333)"><circle cx="3" cy="3" r="3"/></g>
<g transform="translate(825.125,411.125) scale(3.9483333333333)"><circle cx="3" cy="3" r="3"/></g>
<g transform="translate(848.125,411.125) scale(3.9483333333333)"><circle cx="3" cy="3" r="3"/></g>
<g transform="translate(204.125,434.125) scale(3.9483333333333)"><circle cx="3" cy="3" r="3"/></g>
<g transform="translate(273.125,434.125) scale(3.9483333333333)"><circle cx="3" cy="3" r="3"/></g>
<g transform="translate(296.125,434.125) scale(3.9483333333333)"><circle cx="3" cy="3" r="3"/></g>
<g transform="translate(319.125,434.125) scale(3.9483333333333)"><circle cx="3" cy="3" r="3"/></g>
<g transform="translate(342.125,434.125) scale(3.9483333333333)"><circle cx="3" cy="3" r="3"/></g>
<g transform="translate(411.125,434.125) scale(3.9483333333333)"><circle cx="3" cy="3" r="3"/></g>
<g transform="translate(480.125,434.125) scale(3.9483333333333)"><circle cx="3" cy="3" r="3"/></g>
<g transform="translate(526.125,434.125) scale(3.9483333333333)"><circle cx="3" cy="3" r="3"/></g>
<g transform="translate(549.125,434.125) scale(3.9483333333333)"><circle cx="3" cy="3" r="3"/></g>
<g transform="translate(572.125,434.125) scale(3.9483333333333)"><circle cx="3" cy="3" r="3"/></g>
<g transform="translate(595.125,434.125) scale(3.9483333333333)"><circle cx="3" cy="3" r="3"/></g>
<g transform="translate(641.125,434.125) scale(3.9483333333333)"><circle cx="3" cy="3" r="3"/></g>
<g transform="translate(664.125,434.125) scale(3.9483333333333)"><circle cx="3" cy="3" r="3"/></g>
<g transform="translate(733.125,434.125) scale(3.9483333333333)"><circle cx="3" cy="3" r="3"/></g>
<g transform="translate(779.125,434.125) scale(3.9483333333333)"><circle cx="3" cy="3" r="3"/></g>
<g transform="translate(181.125,457.125) scale(3.9483333333333)"><circle cx="3" cy="3" r="3"/></g>
<g transform="translate(227.125,457.125) scale(3.9483333333333)"><circle cx="3" cy="3" r="3"/></g>
<g transform="translate(273.125,457.125) scale(3.9483333333333)"><circle cx="3" cy="3" r="3"/></g>
<g transform="translate(319.125,457.125) scale(3.9483333333333)"><circle cx="3" cy="3" r="3"/></g>
<g transform="translate(342.125,457.125) scale(3.9483333333333)"><circle cx="3" cy="3" r="3"/></g>
<g transform="translate(434.125,457.125) scale(3.9483333333333)"><circle cx="3" cy="3" r="3"/></g>
<g transform="translate(457.125,457.125) scale(3.9483333333333)"><circle cx="3" cy="3" r="3"/></g>
<g transform="translate(526.125,457.125) scale(3.9483333333333)"><circle cx="3" cy="3" r="3"/></g>
<g transform="translate(549.125,457.125) scale(3.9483333333333)"><circle cx="3" cy="3" r="3"/></g>
<g transform="translate(572.125,457.125) scale(3.9483333333333)"><circle cx="3" cy="3" r="3"/></g>
<g transform="translate(595.125,457.125) scale(3.9483333333333)"><circle cx="3" cy="3" r="3"/></g>
<g transform="translate(618.125,457.125) scale(3.9483333333333)"><circle cx="3" cy="3" r="3"/></g>
<g transform="translate(687.125,457.125) scale(3.9483333333333)"><circle cx="3" cy="3" r="3"/></g>
<g transform="translate(733.125,457.125) scale(3.9483333333333)"><circle cx="3" cy="3" r="3"/></g>
<g transform="translate(756.125,457.125) scale(3.9483333333333)"><circle cx="3" cy="3" r="3"/></g>
<g transform="translate(779.125,457.125) scale(3.9483333333333)"><circle cx="3" cy="3" r="3"/></g>
<g transform="translate(825.125,457.125) scale(3.9483333333333)"><circle cx="3" cy="3" r="3"/></g>
<g transform="translate(848.125,457.125) scale(3.9483333333333)"><circle cx="3" cy="3" r="3"/></g>
<g transform="translate(894.125,457.125) scale(3.9483333333333)"><circle cx="3" cy="3" r="3"/></g>
<g transform="translate(181.125,480.125) scale(3.9483333333333)"><circle cx="3" cy="3" r="3"/></g>
<g transform="translate(227.125,480.125) scale(3.9483333333333)"><circle cx="3" cy="3" r="3"/></g>
<g transform="translate(273.125,480.125) scale(3.9483333333333)"><circle cx="3" cy="3" r="3"/></g>
<g transform="translate(296.125,480.125) scale(3.9483333333333)"><circle cx="3" cy="3" r="3"/></g>
<g transform="translate(342.125,480.125) scale(3.9483333333333)"><circle cx="3" cy="3" r="3"/></g>
<g transform="translate(365.125,480.125) scale(3.9483333333333)"><circle cx="3" cy="3" r="3"/></g>
<g transform="translate(434.125,480.125) scale(3.9483333333333)"><circle cx="3" cy="3" r="3"/></g>
<g transform="translate(503.125,480.125) scale(3.9483333333333)"><circle cx="3" cy="3" r="3"/></g>
<g transform="translate(549.125,480.125) scale(3.9483333333333)"><circle cx="3" cy="3" r="3"/></g>
<g transform="translate(595.125,480.125) scale(3.9483333333333)"><circle cx="3" cy="3" r="3"/></g>
<g transform="translate(618.125,480.125) scale(3.9483333333333)"><circle cx="3" cy="3" r="3"/></g>
<g transform="translate(664.125,480.125) scale(3.9483333333333)"><circle cx="3" cy="3" r="3"/></g>
<g transform="translate(733.125,480.125) scale(3.9483333333333)"><circle cx="3" cy="3" r="3"/></g>
<g transform="translate(871.125,480.125) scale(3.9483333333333)"><circle cx="3" cy="3" r="3"/></g>
<g transform="translate(181.125,503.125) scale(3.9483333333333)"><circle cx="3" cy="3" r="3"/></g>
<g transform="translate(204.125,503.125) scale(3.9483333333333)"><circle cx="3" cy="3" r="3"/></g>
<g transform="translate(227.125,503.125) scale(3.9483333333333)"><circle cx="3" cy="3" r="3"/></g>
<g transform="translate(250.125,503.125) scale(3.9483333333333)"><circle cx="3" cy="3" r="3"/></g>
<g transform="translate(273.125,503.125) scale(3.9483333333333)"><circle cx="3" cy="3" r="3"/></g>
<g transform="translate(319.125,503.125) scale(3.9483333333333)"><circle cx="3" cy="3" r="3"/></g>
<g transform="translate(388.125,503.125) scale(3.9483333333333)"><circle cx="3" cy="3" r="3"/></g>
<g transform="translate(434.125,503.125) scale(3.9483333333333)"><circle cx="3" cy="3" r="3"/></g>
<g transform="translate(480.125,503.125) scale(3.9483333333333)"><circle cx="3" cy="3" r="3"/></g>
<g transform="translate(595.125,503.125) scale(3.9483333333333)"><circle cx="3" cy="3" r="3"/></g>
<g transform="translate(618.125,503.125) scale(3.9483333333333)"><circle cx="3" cy="3" r="3"/></g>
<g transform="translate(641.125,503.125) scale(3.9483333333333)"><circle cx="3" cy="3" r="3"/></g>
<g transform="translate(664.125,503.125) scale(3.9483333333333)"><circle cx="3" cy="3" r="3"/></g>
<g transform="translate(710.125,503.125) scale(3.9483333333333)"><circle cx="3" cy="3" r="3"/></g>
<g transform="translate(779.125,503.125) scale(3.9483333333333)"><circle cx="3" cy="3" r="3"/></g>
<g transform="translate(825.125,503.125) scale(3.9483333333333)"><circle cx="3" cy="3" r="3"/></g>
<g transform="translate(848.125,503.125) scale(3.9483333333333)"><circle cx="3" cy="3" r="3"/></g>
<g transform="translate(894.125,503.125) scale(3.9483333333333)"><circle cx="3" cy="3" r="3"/></g>
<g transform="translate(181.125,526.125) scale(3.9483333333333)"><circle cx="3" cy="3" r="3"/></g>
<g transform="translate(204.125,526.125) scale(3.9483333333333)"><circle cx="3" cy="3" r="3"/></g>
<g transform="translate(227.125,526.125) scale(3.9483333333333)"><circle cx="3" cy="3" r="3"/></g>
<g transform="translate(296.125,526.125) scale(3.9483333333333)"><circle cx="3" cy="3" r="3"/></g>
<g transform="translate(388.125,526.125) scale(3.9483333333333)"><circle cx="3" cy="3" r="3"/></g>
<g transform="translate(411.125,526.125) scale(3.9483333333333)"><circle cx="3" cy="3" r="3"/></g>
<g transform="translate(434.125,526.125) scale(3.9483333333333)"><circle cx="3" cy="3" r="3"/></g>
<g transform="translate(457.125,526.125) scale(3.9483333333333)"><circle cx="3" cy="3" r="3"/></g>
<g transform="translate(480.125,526.125) scale(3.9483333333333)"><circle cx="3" cy="3" r="3"/></g>
<g transform="translate(526.125,526.125) scale(3.9483333333333)"><circle cx="3" cy="3" r="3"/></g>
<g transform="translate(549.125,526.125) scale(3.9483333333333)"><circle cx="3" cy="3" r="3"/></g>
<g transform="translate(595.125,526.125) scale(3.9483333333333)"><circle cx="3" cy="3" r="3"/></g>
<g transform="translate(618.125,526.125) scale(3.9483333333333)"><circle cx="3" cy="3" r="3"/></g>
<g transform="translate(733.125,526.125) scale(3.9483333333333)"><circle cx="3" cy="3" r="3"/></g>
<g transform="translate(802.125,526.125) scale(3.9483333333333)"><circle cx="3" cy="3" r="3"/></g>
<g transform="translate(825.125,526.125) scale(3.9483333333333)"><circle cx="3" cy="3" r="3"/></g>
<g transform="translate(871.125,526.125) scale(3.9483333333333)"><circle cx="3" cy="3" r="3"/></g>
<g transform="translate(204.125,549.125) scale(3.9483333333333)"><circle cx="3" cy="3" r="3"/></g>
<g transform="translate(250.125,549.125) scale(3.9483333333333)"><circle cx="3" cy="3" r="3"/></g>
<g transform="translate(273.125,549.125) scale(3.9483333333333)"><circle cx="3" cy="3" r="3"/></g>
<g transform="translate(365.125,549.125) scale(3.9483333333333)"><circle cx="3" cy="3" r="3"/></g>
<g transform="translate(411.125,549.125) scale(3.9483333333333)"><circle cx="3" cy="3" r="3"/></g>
<g transform="translate(480.125,549.125) scale(3.9483333333333)"><circle cx="3" cy="3" r="3"/></g>
<g transform="translate(503.125,549.125) scale(3.9483333333333)"><circle cx="3" cy="3" r="3"/></g>
<g transform="translate(526.125,549.125) scale(3.9483333333333)"><circle cx="3" cy="3" r="3"/></g>
<g transform="translate(572.125,549.125) scale(3.9483333333333)"><circle cx="3" cy="3" r="3"/></g>
<g transform="translate(595.125,549.125) scale(3.9483333333333)"><circle cx="3" cy="3" r="3"/></g>
<g transform="translate(687.125,549.125) scale(3.9483333333333)"><circle cx="3" cy="3" r="3"/></g>
<g transform="translate(710.125,549.125) scale(3.9483333333333)"><circle cx="3" cy="3" r="3"/></g>
<g transform="translate(733.125,549.125) scale(3.9483333333333)"><circle cx="3" cy="3" r="3"/></g>
<g transform="translate(756.125,549.125) scale(3.9483333333333)"><circle cx="3" cy="3" r="3"/></g>
<g transform="translate(894.125,549.125) scale(3.9483333333333)"><circle cx="3" cy="3" r="3"/></g>
<g transform="translate(158.125,572.125) scale(3.9483333333333)"><circle cx="3" cy="3" r="3"/></g>
<g transform="translate(181.125,572.125) scale(3.9483333333333)"><circle cx="3" cy="3" r="3"/></g>
<g transform="translate(227.125,572.125) scale(3.9483333333333)"><circle cx="3" cy="3" r="3"/></g>
<g transform="translate(250.125,572.125) scale(3.9483333333333)"><circle cx="3" cy="3" r="3"/></g>
<g transform="translate(273.125,572.125) scale(3.9483333333333)"><circle cx="3" cy="3" r="3"/></g>
<g transform="translate(296.125,572.125) scale(3.9483333333333)"><circle cx="3" cy="3" r="3"/></g>
<g transform="translate(319.125,572.125) scale(3.9483333333333)"><circle cx="3" cy="3" r="3"/></g>
<g transform="translate(342.125,572.125) scale(3.9483333333333)"><circle cx="3" cy="3" r="3"/></g>
<g transform="translate(365.125,572.125) scale(3.9483333333333)"><circle cx="3" cy="3" r="3"/></g>
<g transform="translate(411.125,572.125) scale(3.9483333333333)"><circle cx="3" cy="3" r="3"/></g>
<g transform="translate(434.125,572.125) scale(3.9483333333333)"><circle cx="3" cy="3" r="3"/></g>
<g transform="translate(503.125,572.125) scale(3.9483333333333)"><circle cx="3" cy="3" r="3"/></g>
<g transform="translate(572.125,572.125) scale(3.9483333333333)"><circle cx="3" cy="3" r="3"/></g>
<g transform="translate(618.125,572.125) scale(3.9483333333333)"><circle cx="3" cy="3" r="3"/></g>
<g transform="translate(664.125,572.125) scale(3.9483333333333)"><circle cx="3" cy="3" r="3"/></g>
<g transform="translate(779.125,572.125) scale(3.9483333333333)"><circle cx="3" cy="3" r="3"/></g>
<g transform="translate(802.125,572.125) scale(3.9483333333333)"><circle cx="3" cy="3" r="3"/></g>
<g transform="translate(848.125,572.125) scale(3.9483333333333)"><circle cx="3" cy="3" r="3"/></g>
<g transform="translate(871.125,572.125) scale(3.9483333333333)"><circle cx="3" cy="3" r="3"/></g>
<g transform="translate(250.125,595.125) scale(3.9483333333333)"><circle cx="3" cy="3" r="3"/></g>
<g transform="translate(273.125,595.125) scale(3.9483333333333)"><circle cx="3" cy="3" r="3"/></g>
<g transform="translate(342.125,595.125) scale(3.9483333333333)"><circle cx="3" cy="3" r="3"/></g>
<g transform="translate(365.125,595.125) scale(3.9483333333333)"><circle cx="3" cy="3" r="3"/></g>
<g transform="translate(388.125,595.125) scale(3.9483333333333)"><circle cx="3" cy="3" r="3"/></g>
<g transform="translate(503.125,595.125) scale(3.9483333333333)"><circle cx="3" cy="3" r="3"/></g>
<g transform="translate(595.125,595.125) scale(3.9483333333333)"><circle cx="3" cy="3" r="3"/></g>
<g transform="translate(618.125,595.125) scale(3.9483333333333)"><circle cx="3" cy="3" r="3"/></g>
<g transform="translate(641.125,595.125) scale(3.9483333333333)"><circle cx="3" cy="3" r="3"/></g>
<g transform="translate(687.125,595.125) scale(3.9483333333333)"><circle cx="3" cy="3" r="3"/></g>
<g transform="translate(710.125,595.125) scale(3.9483333333333)"><circle cx="3" cy="3" r="3"/></g>
<g transform="translate(802.125,595.125) scale(3.9483333333333)"><circle cx="3" cy="3" r="3"/></g>
<g transform="translate(825.125,595.125) scale(3.9483333333333)"><circle cx="3" cy="3" r="3"/></g>
<g transform="translate(848.125,595.125) scale(3.9483333333333)"><circle cx="3" cy="3" r="3"/></g>
<g transform="translate(871.125,595.125) scale(3.9483333333333)"><circle cx="3" cy="3" r="3"/></g>
<g transform="translate(181.125,618.125) scale(3.9483333333333)"><circle cx="3" cy="3" r="3"/></g>
<g transform="translate(227.125,618.125) scale(3.9483333333333)"><circle cx="3" cy="3" r="3"/></g>
<g transform="translate(273.125,618.125) scale(3.9483333333333)"><circle cx="3" cy="3" r="3"/></g>
<g transform="translate(296.125,618.125) scale(3.9483333333333)"><circle cx="3" cy="3" r="3"/></g>
<g transform="translate(319.125,618.125) scale(3.9483333333333)"><circle cx="3" cy="3" r="3"/></g>
<g transform="translate(342.125,618.125) scale(3.9483333333333)"><circle cx="3" cy="3" r="3"/></g>
<g transform="translate(411.125,618.125) scale(3.9483333333333)"><circle cx="3" cy="3" r="3"/></g>
<g transform="translate(434.125,618.125) scale(3.9483333333333)"><circle cx="3" cy="3" r="3"/></g>
<g transform="translate(480.125,618.125) scale(3.9483333333333)"><circle cx="3" cy="3" r="3"/></g>
<g transform="translate(503.125,618.125) scale(3.9483333333333)"><circle cx="3" cy="3" r="3"/></g>
<g transform="translate(526.125,618.125) scale(3.9483333333333)"><circle cx="3" cy="3" r="3"/></g>
<g transform="translate(549.125,618.125) scale(3.9483333333333)"><circle cx="3" cy="3" r="3"/></g>
<g transform="translate(595.125,618.125) scale(3.9483333333333)"><circle cx="3" cy="3" r="3"/></g>
<g transform="translate(664.125,618.125) scale(3.9483333333333)"><circle cx="3" cy="3" r="3"/></g>
<g transform="translate(710.125,618.125) scale(3.9483333333333)"><circle cx="3" cy="3" r="3"/></g>
<g transform="translate(779.125,618.125) scale(3.9483333333333)"><circle cx="3" cy="3" r="3"/></g>
<g transform="translate(802.125,618.125) scale(3.9483333333333)"><circle cx="3" cy="3" r="3"/></g>
<g transform="translate(825.125,618.125) scale(3.9483333333333)"><circle cx="3" cy="3" r="3"/></g>
<g transform="translate(871.125,618.125) scale(3.9483333333333)"><circle cx="3" cy="3" r="3"/></g>
<g transform="translate(158.125,641.125) scale(3.9483333333333)"><circle cx="3" cy="3" r="3"/></g>
<g transform="translate(319.125,641.125) scale(3.9483333333333)"><circle cx="3" cy="3" r="3"/></g>
<g transform="translate(342.125,641.125) scale(3.9483333333333)"><circle cx="3" cy="3" r="3"/></g>
<g transform="translate(388.125,641.125) scale(3.9483333333333)"><circle cx="3" cy="3" r="3"/></g>
<g transform="translate(457.125,641.125) scale(3.9483333333333)"><circle cx="3" cy="3" r="3"/></g>
<g transform="translate(526.125,641.125) scale(3.9483333333333)"><circle cx="3" cy="3" r="3"/></g>
<g transform="translate(549.125,641.125) scale(3.9483333333333)"><circle cx="3" cy="3" r="3"/></g>
<g transform="translate(618.125,641.125) scale(3.9483333333333)"><circle cx="3" cy="3" r="3"/></g>
<g transform="translate(641.125,641.125) scale(3.9483333333333)"><circle cx="3" cy="3" r="3"/></g>
<g transform="translate(825.125,641.125) scale(3.9483333333333)"><circle cx="3" cy="3" r="3"/></g>
<g transform="translate(894.125,641.125) scale(3.9483333333333)"><circle cx="3" cy="3" r="3"/></g>
<g transform="translate(158.125,664.125) scale(3.9483333333333)"><circle cx="3" cy="3" r="3"/></g>
<g transform="translate(250.125,664.125) scale(3.9483333333333)"><circle cx="3" cy="3" r="3"/></g>
<g transform="translate(273.125,664.125) scale(3.9483333333333)"><circle cx="3" cy="3" r="3"/></g>
<g transform="translate(296.125,664.125) scale(3.9483333333333)"><circle cx="3" cy="3" r="3"/></g>
<g transform="translate(319.125,664.125) scale(3.9483333333333)"><circle cx="3" cy="3" r="3"/></g>
<g transform="translate(388.125,664.125) scale(3.9483333333333)"><circle cx="3" cy="3" r="3"/></g>
<g transform="translate(411.125,664.125) scale(3.9483333333333)"><circle cx="3" cy="3" r="3"/></g>
<g transform="translate(434.125,664.125) scale(3.9483333333333)"><circle cx="3" cy="3" r="3"/></g>
<g transform="translate(457.125,664.125) scale(3.9483333333333)"><circle cx="3" cy="3" r="3"/></g>
<g transform="translate(503.125,664.125) scale(3.9483333333333)"><circle cx="3" cy="3" r="3"/></g>
<g transform="translate(549.125,664.125) scale(3.9483333333333)"><circle cx="3" cy="3" r="3"/></g>
<g transform="translate(572.125,664.125) scale(3.9483333333333)"><circle cx="3" cy="3" r="3"/></g>
<g transform="translate(641.125,664.125) scale(3.9483333333333)"><circle cx="3" cy="3" r="3"/></g>
<g transform="translate(664.125,664.125) scale(3.9483333333333)"><circle cx="3" cy="3" r="3"/></g>
<g transform="translate(687.125,664.125) scale(3.9483333333333)"><circle cx="3" cy="3" r="3"/></g>
<g transform="translate(710.125,664.125) scale(3.9483333333333)"><circle cx="3" cy="3" r="3"/></g>
<g transform="translate(871.125,664.125) scale(3.9483333333333)"><circle cx="3" cy="3" r="3"/></g>
<g transform="translate(158.125,687.125) scale(3.9483333333333)"><circle cx="3" cy="3" r="3"/></g>
<g transform="translate(227.125,687.125) scale(3.9483333333333)"><circle cx="3" cy="3" r="3"/></g>
<g transform="translate(250.125,687.125) scale(3.9483333333333)"><circle cx="3" cy="3" r="3"/></g>
<g transform="translate(319.125,687.125) scale(3.9483333333333)"><circle cx="3" cy="3" r="3"/></g>
<g transform="translate(342.125,687.125) scale(3.9483333333333)"><circle cx="3" cy="3" r="3"/></g>
<g transform="translate(480.125,687.125) scale(3.9483333333333)"><circle cx="3" cy="3" r="3"/></g>
<g transform="translate(503.125,687.125) scale(3.9483333333333)"><circle cx="3" cy="3" r="3"/></g>
<g transform="translate(549.125,687.125) scale(3.9483333333333)"><circle cx="3" cy="3" r="3"/></g>
<g transform="translate(572.125,687.125) scale(3.9483333333333)"><circle cx="3" cy="3" r="3"/></g>
<g transform="translate(595.125,687.125) scale(3.9483333333333)"><circle cx="3" cy="3" r="3"/></g>
<g transform="translate(641.125,687.125) scale(3.9483333333333)"><circle cx="3" cy="3" r="3"/></g>
<g transform="translate(687.125,687.125) scale(3.9483333333333)"><circle cx="3" cy="3" r="3"/></g>
<g transform="translate(825.125,687.125) scale(3.9483333333333)"><circle cx="3" cy="3" r="3"/></g>
<g transform="translate(848.125,687.125) scale(3.9483333333333)"><circle cx="3" cy="3" r="3"/></g>
<g transform="translate(871.125,687.125) scale(3.9483333333333)"><circle cx="3" cy="3" r="3"/></g>
<g transform="translate(894.125,687.125) scale(3.9483333333333)"><circle cx="3" cy="3" r="3"/></g>
<g transform="translate(158.125,710.125) scale(3.9483333333333)"><circle cx="3" cy="3" r="3"/></g>
<g transform="translate(227.125,710.125) scale(3.9483333333333)"><circle cx="3" cy="3" r="3"/></g>
<g transform="translate(273.125,710.125) scale(3.9483333333333)"><circle cx="3" cy="3" r="3"/></g>
<g transform="translate(296.125,710.125) scale(3.9483333333333)"><circle cx="3" cy="3" r="3"/></g>
<g transform="translate(319.125,710.125) scale(3.9483333333333)"><circle cx="3" cy="3" r="3"/></g>
<g transform="translate(342.125,710.125) scale(3.9483333333333)"><circle cx="3" cy="3" r="3"/></g>
<g transform="translate(434.125,710.125) scale(3.9483333333333)"><circle cx="3" cy="3" r="3"/></g>
<g transform="translate(457.125,710.125) scale(3.9483333333333)"><circle cx="3" cy="3" r="3"/></g>
<g transform="translate(480.125,710.125) scale(3.9483333333333)"><circle cx="3" cy="3" r="3"/></g>
<g transform="translate(526.125,710.125) scale(3.9483333333333)"><circle cx="3" cy="3" r="3"/></g>
<g transform="translate(549.125,710.125) scale(3.9483333333333)"><circle cx="3" cy="3" r="3"/></g>
<g transform="translate(595.125,710.125) scale(3.9483333333333)"><circle cx="3" cy="3" r="3"/></g>
<g transform="translate(641.125,710.125) scale(3.9483333333333)"><circle cx="3" cy="3" r="3"/></g>
<g transform="translate(664.125,710.125) scale(3.9483333333333)"><circle cx="3" cy="3" r="3"/></g>
<g transform="translate(687.125,710.125) scale(3.9483333333333)"><circle cx="3" cy="3" r="3"/></g>
<g transform="translate(710.125,710.125) scale(3.9483333333333)"><circle cx="3" cy="3" r="3"/></g>
<g transform="translate(733.125,710.125) scale(3.9483333333333)"><circle cx="3" cy="3" r="3"/></g>
<g transform="translate(756.125,710.125) scale(3.9483333333333)"><circle cx="3" cy="3" r="3"/></g>
<g transform="translate(779.125,710.125) scale(3.9483333333333)"><circle cx="3" cy="3" r="3"/></g>
<g transform="translate(802.125,710.125) scale(3.9483333333333)"><circle cx="3" cy="3" r="3"/></g>
<g transform="translate(342.125,733.125) scale(3.9483333333333)"><circle cx="3" cy="3" r="3"/></g>
<g transform="translate(365.125,733.125) scale(3.9483333333333)"><circle cx="3" cy="3" r="3"/></g>
<g transform="translate(457.125,733.125) scale(3.9483333333333)"><circle cx="3" cy="3" r="3"/></g>
<g transform="translate(618.125,733.125) scale(3.9483333333333)"><circle cx="3" cy="3" r="3"/></g>
<g transform="translate(641.125,733.125) scale(3.9483333333333)"><circle cx="3" cy="3" r="3"/></g>
<g transform="translate(664.125,733.125) scale(3.9483333333333)"><circle cx="3" cy="3" r="3"/></g>
<g transform="translate(710.125,733.125) scale(3.9483333333333)"><circle cx="3" cy="3" r="3"/></g>
<g transform="translate(802.125,733.125) scale(3.9483333333333)"><circle cx="3" cy="3" r="3"/></g>
<g transform="translate(825.125,733.125) scale(3.9483333333333)"><circle cx="3" cy="3" r="3"/></g>
<g transform="translate(871.125,733.125) scale(3.9483333333333)"><circle cx="3" cy="3" r="3"/></g>
<g transform="translate(894.125,733.125) scale(3.9483333333333)"><circle cx="3" cy="3" r="3"/></g>
<g transform="translate(411.125,756.125) scale(3.9483333333333)"><circle cx="3" cy="3" r="3"/></g>
<g transform="translate(434.125,756.125) scale(3.9483333333333)"><circle cx="3" cy="3" r="3"/></g>
<g transform="translate(457.125,756.125) scale(3.9483333333333)"><circle cx="3" cy="3" r="3"/></g>
<g transform="translate(480.125,756.125) scale(3.9483333333333)"><circle cx="3" cy="3" r="3"/></g>
<g transform="translate(503.125,756.125) scale(3.9483333333333)"><circle cx="3" cy="3" r="3"/></g>
<g transform="translate(595.125,756.125) scale(3.9483333333333)"><circle cx="3" cy="3" r="3"/></g>
<g transform="translate(618.125,756.125) scale(3.9483333333333)"><circle cx="3" cy="3" r="3"/></g>
<g transform="translate(641.125,756.125) scale(3.9483333333333)"><circle cx="3" cy="3" r="3"/></g>
<g transform="translate(687.125,756.125) scale(3.9483333333333)"><circle cx="3" cy="3" r="3"/></g>
<g transform="translate(710.125,756.125) scale(3.9483333333333)"><circle cx="3" cy="3" r="3"/></g>
<g transform="translate(756.125,756.125) scale(3.9483333333333)"><circle cx="3" cy="3" r="3"/></g>
<g transform="translate(802.125,756.125) scale(3.9483333333333)"><circle cx="3" cy="3" r="3"/></g>
<g transform="translate(825.125,756.125) scale(3.9483333333333)"><circle cx="3" cy="3" r="3"/></g>
<g transform="translate(848.125,756.125) scale(3.9483333333333)"><circle cx="3" cy="3" r="3"/></g>
<g transform="translate(871.125,756.125) scale(3.9483333333333)"><circle cx="3" cy="3" r="3"/></g>
<g transform="translate(365.125,779.125) scale(3.9483333333333)"><circle cx="3" cy="3" r="3"/></g>
<g transform="translate(388.125,779.125) scale(3.9483333333333)"><circle cx="3" cy="3" r="3"/></g>
<g transform="translate(457.125,779.125) scale(3.9483333333333)"><circle cx="3" cy="3" r="3"/></g>
<g transform="translate(480.125,779.125) scale(3.9483333333333)"><circle cx="3" cy="3" r="3"/></g>
<g transform="translate(526.125,779.125) scale(3.9483333333333)"><circle cx="3" cy="3" r="3"/></g>
<g transform="translate(549.125,779.125) scale(3.9483333333333)"><circle cx="3" cy="3" r="3"/></g>
<g transform="translate(572.125,779.125) scale(3.9483333333333)"><circle cx="3" cy="3" r="3"/></g>
<g transform="translate(595.125,779.125) scale(3.9483333333333)"><circle cx="3" cy="3" r="3"/></g>
<g transform="translate(641.125,779.125) scale(3.9483333333333)"><circle cx="3" cy="3" r="3"/></g>
<g transform="translate(664.125,779.125) scale(3.9483333333333)"><circle cx="3" cy="3" r="3"/></g>
<g transform="translate(710.125,779.125) scale(3.9483333333333)"><circle cx="3" cy="3" r="3"/></g>
<g transform="translate(802.125,779.125) scale(3.9483333333333)"><circle cx="3" cy="3" r="3"/></g>
<g transform="translate(848.125,779.125) scale(3.9483333333333)"><circle cx="3" cy="3" r="3"/></g>
<g transform="translate(871.125,779.125) scale(3.9483333333333)"><circle cx="3" cy="3" r="3"/></g>
<g transform="translate(894.125,779.125) scale(3.9483333333333)"><circle cx="3" cy="3" r="3"/></g>
<g transform="translate(342.125,802.125) scale(3.9483333333333)"><circle cx="3" cy="3" r="3"/></g>
<g transform="translate(411.125,802.125) scale(3.9483333333333)"><circle cx="3" cy="3" r="3"/></g>
<g transform="translate(434.125,802.125) scale(3.9483333333333)"><circle cx="3" cy="3" r="3"/></g>
<g transform="translate(457.125,802.125) scale(3.9483333333333)"><circle cx="3" cy="3" r="3"/></g>
<g transform="translate(526.125,802.125) scale(3.9483333333333)"><circle cx="3" cy="3" r="3"/></g>
<g transform="translate(641.125,802.125) scale(3.9483333333333)"><circle cx="3" cy="3" r="3"/></g>
<g transform="translate(710.125,802.125) scale(3.9483333333333)"><circle cx="3" cy="3" r="3"/></g>
<g transform="translate(733.125,802.125) scale(3.9483333333333)"><circle cx="3" cy="3" r="3"/></g>
<g transform="translate(756.125,802.125) scale(3.9483333333333)"><circle cx="3" cy="3" r="3"/></g>
<g transform="translate(779.125,802.125) scale(3.9483333333333)"><circle cx="3" cy="3" r="3"/></g>
<g transform="translate(802.125,802.125) scale(3.9483333333333)"><circle cx="3" cy="3" r="3"/></g>
<g transform="translate(871.125,802.125) scale(3.9483333333333)"><circle cx="3" cy="3" r="3"/></g>
<g transform="translate(894.125,802.125) scale(3.9483333333333)"><circle cx="3" cy="3" r="3"/></g>
<g transform="translate(342.125,825.125) scale(3.9483333333333)"><circle cx="3" cy="3" r="3"/></g>
<g transform="translate(388.125,825.125) scale(3.9483333333333)"><circle cx="3" cy="3" r="3"/></g>
<g transform="translate(434.125,825.125) scale(3.9483333333333)"><circle cx="3" cy="3" r="3"/></g>
<g transform="translate(503.125,825.125) scale(3.9483333333333)"><circle cx="3" cy="3" r="3"/></g>
<g transform="translate(572.125,825.125) scale(3.9483333333333)"><circle cx="3" cy="3" r="3"/></g>
<g transform="translate(641.125,825.125) scale(3.9483333333333)"><circle cx="3" cy="3" r="3"/></g>
<g transform="translate(664.125,825.125) scale(3.9483333333333)"><circle cx="3" cy="3" r="3"/></g>
<g transform="translate(687.125,825.125) scale(3.9483333333333)"><circle cx="3" cy="3" r="3"/></g>
<g transform="translate(733.125,825.125) scale(3.9483333333333)"><circle cx="3" cy="3" r="3"/></g>
<g transform="translate(802.125,825.125) scale(3.9483333333333)"><circle cx="3" cy="3" r="3"/></g>
<g transform="translate(825.125,825.125) scale(3.9483333333333)"><circle cx="3" cy="3" r="3"/></g>
<g transform="translate(848.125,825.125) scale(3.9483333333333)"><circle cx="3" cy="3" r="3"/></g>
<g transform="translate(871.125,825.125) scale(3.9483333333333)"><circle cx="3" cy="3" r="3"/></g>
<g transform="translate(342.125,848.125) scale(3.9483333333333)"><circle cx="3" cy="3" r="3"/></g>
<g transform="translate(388.125,848.125) scale(3.9483333333333)"><circle cx="3" cy="3" r="3"/></g>
<g transform="translate(411.125,848.125) scale(3.9483333333333)"><circle cx="3" cy="3" r="3"/></g>
<g transform="translate(503.125,848.125) scale(3.9483333333333)"><circle cx="3" cy="3" r="3"/></g>
<g transform="translate(549.125,848.125) scale(3.9483333333333)"><circle cx="3" cy="3" r="3"/></g>
<g transform="translate(572.125,848.125) scale(3.9483333333333)"><circle cx="3" cy="3" r="3"/></g>
<g transform="translate(641.125,848.125) scale(3.9483333333333)"><circle cx="3" cy="3" r="3"/></g>
<g transform="translate(664.125,848.125) scale(3.9483333333333)"><circle cx="3" cy="3" r="3"/></g>
<g transform="translate(687.125,848.125) scale(3.9483333333333)"><circle cx="3" cy="3" r="3"/></g>
<g transform="translate(710.125,848.125) scale(3.9483333333333)"><circle cx="3" cy="3" r="3"/></g>
<g transform="translate(733.125,848.125) scale(3.9483333333333)"><circle cx="3" cy="3" r="3"/></g>
<g transform="translate(756.125,848.125) scale(3.9483333333333)"><circle cx="3" cy="3" r="3"/></g>
<g transform="translate(848.125,848.125) scale(3.9483333333333)"><circle cx="3" cy="3" r="3"/></g>
<g transform="translate(365.125,871.125) scale(3.9483333333333)"><circle cx="3" cy="3" r="3"/></g>
<g transform="translate(411.125,871.125) scale(3.9483333333333)"><circle cx="3" cy="3" r="3"/></g>
<g transform="translate(457.125,871.125) scale(3.9483333333333)"><circle cx="3" cy="3" r="3"/></g>
<g transform="translate(503.125,871.125) scale(3.9483333333333)"><circle cx="3" cy="3" r="3"/></g>
<g transform="translate(549.125,871.125) scale(3.9483333333333)"><circle cx="3" cy="3" r="3"/></g>
<g transform="translate(595.125,871.125) scale(3.9483333333333)"><circle cx="3" cy="3" r="3"/></g>
<g transform="translate(664.125,871.125) scale(3.9483333333333)"><circle cx="3" cy="3" r="3"/></g>
<g transform="translate(779.125,871.125) scale(3.9483333333333)"><circle cx="3" cy="3" r="3"/></g>
<g transform="translate(825.125,871.125) scale(3.9483333333333)"><circle cx="3" cy="3" r="3"/></g>
<g transform="translate(848.125,871.125) scale(3.9483333333333)"><circle cx="3" cy="3" r="3"/></g>
<g transform="translate(388.125,894.125) scale(3.9483333333333)"><circle cx="3" cy="3" r="3"/></g>
<g transform="translate(411.125,894.125) scale(3.9483333333333)"><circle cx="3" cy="3" r="3"/></g>
<g transform="translate(457.125,894.125) scale(3.9483333333333)"><circle cx="3" cy="3" r="3"/></g>
<g transform="translate(480.125,894.125) scale(3.9483333333333)"><circle cx="3" cy="3" r="3"/></g>
<g transform="translate(526.125,894.125) scale(3.9483333333333)"><circle cx="3" cy="3" r="3"/></g>
<g transform="translate(572.125,894.125) scale(3.9483333333333)"><circle cx="3" cy="3" r="3"/></g>
<g transform="translate(595.125,894.125) scale(3.9483333333333)"><circle cx="3" cy="3" r="3"/></g>
<g transform="translate(641.125,894.125) scale(3.9483333333333)"><circle cx="3" cy="3" r="3"/></g>
<g transform="translate(687.125,894.125) scale(3.9483333333333)"><circle cx="3" cy="3" r="3"/></g>
<g transform="translate(710.125,894.125) scale(3.9483333333333)"><circle cx="3" cy="3" r="3"/></g>
<g transform="translate(871.125,894.125) scale(3.9483333333333)"><circle cx="3" cy="3" r="3"/></g>
</g><g><g transform="translate(158.125,158.125)" fill="#b285ff"><g transform="scale(11.5)"><path d="M0,0v14h14V0H0z M12,12H2V2h10V12z"/></g></g>
<g transform="translate(756.125,158.125)" fill="#b285ff"><g transform="scale(11.5)"><path d="M0,0v14h14V0H0z M12,12H2V2h10V12z"/></g></g>
<g transform="translate(158.125,756.125)" fill="#b285ff"><g transform="scale(11.5)"><path d="M0,0v14h14V0H0z M12,12H2V2h10V12z"/></g></g>
<g transform="translate(204.125,204.125)" fill="#b285ff"><g transform="scale(11.5)"><rect width="6" height="6"/></g></g>
<g transform="translate(802.125,204.125)" fill="#b285ff"><g transform="scale(11.5)"><rect width="6" height="6"/></g></g>
<g transform="translate(204.125,802.125)" fill="#b285ff"><g transform="scale(11.5)"><rect width="6" height="6"/></g></g></g><g transform="translate(120.175,1151.2823570605) scale(1.0317597627286)"><path fill="#b285ff" d="M9.7,120q-1.1,0-1.9-0.8t-0.8-1.9l0-64.6q0-1.1,0.8-1.9t1.9-0.8l32.2,0q6.7,0,11.3,1.85t7.35,4.8t3.95,6.7t1.2,7.45q0,2.9-0.65,5.05t-1.55,3.7t-1.85,2.5t-1.55,1.45q3.9,2.7,5.45,6.25t1.55,8.55q0,4.1-1.2,8t-3.95,6.95t-7.15,4.9t-10.8,1.85l-34.3,0z M47.1,71.2q0-2.6-1.55-4.15t-4.55-1.55l-15.5,0l0,11.4l15.5,0q3,0,4.55-1.55t1.55-4.15z M25.5,104.5l16.5,0q3,0,4.8-1.75t1.8-4.35t-1.8-4.35t-4.8-1.75l-16.5,0l0,12.2z M76.5,70.7q0-1.1,0.8-1.9t1.9-0.8l12.6,0q1.1,0,1.9,0.8t0.8,1.9l0,25.3q0,4.3,1.9,6.9t6.3,2.6t6.25-2.6t1.85-6.9l0-25.3q0-1.1,0.8-1.9t1.9-0.8l12.6,0q1.1,0,1.9,0.8t0.8,1.9l0,46.6q0,1.1-0.8,1.9t-1.9,0.8l-11.6,0q-1.1,0-1.9-0.8t-0.8-1.9l0-2.3q-0.8,1.1-1.95,2.15t-2.85,1.9t-3.95,1.4t-5.35,0.55q-9.7,0-15.45-5.5t-5.75-17.3l0-27.5z M167.5,136.6q-0.3,0.8-1,1.6t-1.9,0.8l-13.1,0q-1,0-1.7-0.7t-0.7-1.7q0-0.4,0.1-0.7l7.6-17.9l-20.2-46.9q-0.1-0.3-0.1-0.7q0-1,0.7-1.7t1.7-0.7l13.1,0q1.2,0,1.9,0.8t1,1.6l11.1,26l11-26q0.3-0.8,1-1.6t1.9-0.8l13.2,0q1,0,1.7,0.7t0.7,1.7q0,0.4-0.1,0.7z  M257,103.2q-1.5,0-2.35-0.85t-1.35-1.65l-9.4-16.5l0,33.1q0,1.1-0.8,1.9t-1.9,0.8l-13.1,0q-1.1,0-1.9-0.8t-0.8-1.9l0-64.6q0-1.1,0.8-1.9t1.9-0.8l11.6,0q2,0,3,1.1t1.3,1.6l16.2,27.7l16.2-27.7q0.3-0.5,1.3-1.6t3-1.1l11.6,0q1.1,0,1.9,0.8t0.8,1.9l0,64.6q0,1.1-0.8,1.9t-1.9,0.8l-13.1,0q-1.1,0-1.9-0.8t-0.8-1.9l0-33.1l-9.4,16.5q-0.5,0.8-1.35,1.65t-2.35,0.85l-6.4,0l0,0z M323.4,99.7q0,2.3,0.85,3.8t2.15,2.4t2.9,1.25t3.1,0.35q3,0,4.75-0.6t2.95-1.7q1.1-0.9,1.6-1.15t1.7-0.25l13,0q2.2,0,2.2,2.2q0,1.2-1.5,3.65t-4.65,5t-8.15,4.45t-11.9,1.9q-6.5,0-11.55-1.85t-8.5-5.35t-5.2-8.5t-1.75-11.3q0-5.8,1.75-10.75t5.2-8.55t8.5-5.65t11.55-2.05q7.3,0,12.45,2.45t8.4,6.35t4.7,8.75t1.45,9.65l0,2.8q0,1.1-0.8,1.9t-1.9,0.8l-33.3,0z M332.4,80.5q-4.2,0-6.4,2.5t-2.6,5.6l18,0q-0.4-3.1-2.6-5.6t-6.4-2.5z  M386.3,105.2q0-6.6,5.05-10.9t16.45-6.3l11.7-2q0-2.4-1.3-3.95t-4.5-1.55q-2.3,0-3.55,0.65t-1.85,1.15q-0.9,0.8-1.7,1t-1.9,0.2l-12.7,0q-1,0-1.65-0.6t-0.55-1.6q0.2-2.3,2-4.8t4.95-4.6t7.5-3.5t9.45-1.4q6.1,0,10.6,1.5t7.45,4.15t4.35,6.3t1.4,8.05l0,30.3q0,1.1-0.8,1.9t-1.9,0.8l-12.6,0q-1.1,0-1.9-0.8t-0.8-1.9l0-2.8q-2.4,3-5.95,4.75t-9.35,1.75q-4.3,0-7.65-1.2t-5.6-3.3t-3.45-5t-1.2-6.3z M409.1,107.5q2.2,0,4.1-0.75t3.3-2.05t2.2-3.05t0.8-3.75l-9.2,1.4q-2.7,0.5-4.35,1.7t-1.65,3.1t1.25,2.65t3.55,0.75z  M487.1,76.6q-0.1,1.3-0.15,3.6t-0.05,4.75t0.05,4.8t0.15,3.65q0.2,2.3,0.9,4.4t2.2,3.7t3.8,2.55t5.7,0.95t5.6-0.8t3.6-1.95t2.15-2.55t1.15-2.6q0.5-1.6,1.1-2.25t2.3-0.65l13.1,0q0.9,0,1.55,0.65t0.65,1.55q-0.1,5.1-2.5,9.6t-6.6,7.8t-9.85,5.25t-12.25,1.95q-7.2,0-12.85-2.15t-9.65-5.85t-6.15-8.65t-2.45-10.45q-0.2-4.1-0.2-8.8t0.2-9q0.2-5.5,2.4-10.45t6.15-8.65t9.65-5.85t12.9-2.15q6.6,0,12.25,1.95t9.85,5.25t6.6,7.8t2.5,9.6q0,0.9-0.65,1.55t-1.55,0.65l-13.1,0q-1.7,0-2.3-0.65t-1.1-2.25q-0.4-1.2-1.15-2.6t-2.15-2.55t-3.6-1.95t-5.6-0.8t-5.7,0.95t-3.8,2.55t-2.2,3.7t-0.9,4.4z M592.2,90.2q0.1,1.5,0.1,3.85t-0.1,3.85q-0.2,4.8-2.2,9t-5.5,7.35t-8.45,4.95t-11.05,1.8t-11.05-1.8t-8.45-4.95t-5.5-7.35t-2.2-9q-0.1-1.5-0.1-3.85t0.1-3.85q0.1-4.8,2.1-9t5.55-7.35t8.5-5t11.05-1.85t11.05,1.85t8.5,5t5.5,7.35t2.15,9z M555.8,97.4q0.3,3.8,2.75,5.95t6.45,2.15t6.45-2.15t2.75-5.95q0.2-1.5,0.2-3.4t-0.2-3.4q-0.3-3.8-2.75-5.95t-6.45-2.15t-6.45,2.15t-2.75,5.95q-0.2,1.5-0.2,3.4t0.2,3.4z M625.5,68l12.3,0q1.1,0,1.9,0.8t0.8,1.9l0,10.1q0,1.1-0.8,1.9t-1.9,0.8l-12.3,0l0,33.8q0,1.1-0.8,1.9t-1.9,0.8l-12.6,0q-1.1,0-1.9-0.8t-0.8-1.9l0-33.8l-6.9,0q-1.1,0-1.9-0.8t-0.8-1.9l0-10.1q0-1.1,0.8-1.9t1.9-0.8l6.9,0l0-2.7q0-4.6,1.65-8.2t4.55-6.05t6.9-3.75t8.7-1.3l9.5,0q1.1,0,1.9,0.8t0.8,1.9l0,10.1q0,1.1-0.8,1.9t-1.9,0.8l-9,0q-2.4,0-3.35,1.2t-0.95,3.1l0,2.2z M671.5,68l12.3,0q1.1,0,1.9,0.8t0.8,1.9l0,10.1q0,1.1-0.8,1.9t-1.9,0.8l-12.3,0l0,33.8q0,1.1-0.8,1.9t-1.9,0.8l-12.6,0q-1.1,0-1.9-0.8t-0.8-1.9l0-33.8l-6.9,0q-1.1,0-1.9-0.8t-0.8-1.9l0-10.1q0-1.1,0.8-1.9t1.9-0.8l6.9,0l0-2.7q0-4.6,1.65-8.2t4.55-6.05t6.9-3.75t8.7-1.3l9.5,0q1.1,0,1.9,0.8t0.8,1.9l0,10.1q0,1.1-0.8,1.9t-1.9,0.8l-9,0q-2.4,0-3.35,1.2t-0.95,3.1l0,2.2z M709.2,99.7q0,2.3,0.85,3.8t2.15,2.4t2.9,1.25t3.1,0.35q3,0,4.75-0.6t2.95-1.7q1.1-0.9,1.6-1.15t1.7-0.25l13,0q2.2,0,2.2,2.2q0,1.2-1.5,3.65t-4.65,5t-8.15,4.45t-11.9,1.9q-6.5,0-11.55-1.85t-8.5-5.35t-5.2-8.5t-1.75-11.3q0-5.8,1.75-10.75t5.2-8.55t8.5-5.65t11.55-2.05q7.3,0,12.45,2.45t8.4,6.35t4.7,8.75t1.45,9.65l0,2.8q0,1.1-0.8,1.9t-1.9,0.8l-33.3,0z M718.2,80.5q-4.2,0-6.4,2.5t-2.6,5.6l18,0q-0.4-3.1-2.6-5.6t-6.4-2.5z M769.9,99.7q0,2.3,0.85,3.8t2.15,2.4t2.9,1.25t3.1,0.35q3,0,4.75-0.6t2.95-1.7q1.1-0.9,1.6-1.15t1.7-0.25l13,0q2.2,0,2.2,2.2q0,1.2-1.5,3.65t-4.65,5t-8.15,4.45t-11.9,1.9q-6.5,0-11.55-1.85t-8.5-5.35t-5.2-8.5t-1.75-11.3q0-5.8,1.75-10.75t5.2-8.55t8.5-5.65t11.55-2.05q7.3,0,12.45,2.45t8.4,6.35t4.7,8.75t1.45,9.65l0,2.8q0,1.1-0.8,1.9t-1.9,0.8l-33.3,0z M778.9,80.5q-4.2,0-6.4,2.5t-2.6,5.6l18,0q-0.4-3.1-2.6-5.6t-6.4-2.5z"/></g></svg>
